solid Untitled-5f771acf
facet normal 0.0 0.0 -1.0
  outer loop
    vertex -144.8888739433602 38.82285676537815 -75.0
    vertex -144.88887394336027 -38.822856765378056 -75.0
    vertex -150.0 1.8369701987210297e-14 -75.0
  endloop
endfacet
facet normal 0.0 0.0 -1.0
  outer loop
    vertex -144.88887394336027 -38.822856765378056 -75.0
    vertex -144.8888739433602 38.82285676537815 -75.0
    vertex -129.90381056766583 -74.99999999999996 -75.0
  endloop
endfacet
facet normal 0.0 0.0 -1.0
  outer loop
    vertex -129.90381056766583 -74.99999999999996 -75.0
    vertex -144.8888739433602 38.82285676537815 -75.0
    vertex -129.90381056766577 75.00000000000004 -75.0
  endloop
endfacet
facet normal 0.0 0.0 -1.0
  outer loop
    vertex -129.90381056766583 -74.99999999999996 -75.0
    vertex -129.90381056766577 75.00000000000004 -75.0
    vertex -106.06601717798219 -106.06601717798208 -75.0
  endloop
endfacet
facet normal 0.0 0.0 -1.0
  outer loop
    vertex -106.06601717798219 -106.06601717798208 -75.0
    vertex -129.90381056766577 75.00000000000004 -75.0
    vertex -106.06601717798212 106.06601717798212 -75.0
  endloop
endfacet
facet normal 0.0 0.0 -1.0
  outer loop
    vertex -106.06601717798219 -106.06601717798208 -75.0
    vertex -106.06601717798212 106.06601717798212 -75.0
    vertex -75.00000000000007 -129.90381056766577 -75.0
  endloop
endfacet
facet normal 0.0 0.0 -1.0
  outer loop
    vertex -75.00000000000007 -129.90381056766577 -75.0
    vertex -106.06601717798212 106.06601717798212 -75.0
    vertex -74.99999999999996 129.9038105676658 -75.0
  endloop
endfacet
facet normal 0.0 0.0 -1.0
  outer loop
    vertex -75.00000000000007 -129.90381056766577 -75.0
    vertex -74.99999999999996 129.9038105676658 -75.0
    vertex -38.822856765378226 -144.8888739433602 -75.0
  endloop
endfacet
facet normal 0.0 0.0 -1.0
  outer loop
    vertex -38.822856765378226 -144.8888739433602 -75.0
    vertex -74.99999999999996 129.9038105676658 -75.0
    vertex -38.82285676537809 144.88887394336024 -75.0
  endloop
endfacet
facet normal 0.0 0.0 -1.0
  outer loop
    vertex -38.822856765378226 -144.8888739433602 -75.0
    vertex -38.82285676537809 144.88887394336024 -75.0
    vertex -2.7554552980815443e-14 -150.0 -75.0
  endloop
endfacet
facet normal 0.0 0.0 -1.0
  outer loop
    vertex -2.7554552980815443e-14 -150.0 -75.0
    vertex -38.82285676537809 144.88887394336024 -75.0
    vertex 9.184850993605149e-15 150.0 -75.0
  endloop
endfacet
facet normal 0.0 0.0 -1.0
  outer loop
    vertex -2.7554552980815443e-14 -150.0 -75.0
    vertex 9.184850993605149e-15 150.0 -75.0
    vertex 38.82285676537804 -144.88887394336027 -75.0
  endloop
endfacet
facet normal 0.0 0.0 -1.0
  outer loop
    vertex 38.82285676537804 -144.88887394336027 -75.0
    vertex 9.184850993605149e-15 150.0 -75.0
    vertex 38.82285676537814 144.8888739433602 -75.0
  endloop
endfacet
facet normal 0.0 0.0 -1.0
  outer loop
    vertex 38.82285676537804 -144.88887394336027 -75.0
    vertex 38.82285676537814 144.8888739433602 -75.0
    vertex 74.9999999999999 -129.90381056766583 -75.0
  endloop
endfacet
facet normal 0.0 0.0 -1.0
  outer loop
    vertex 74.9999999999999 -129.90381056766583 -75.0
    vertex 38.82285676537814 144.8888739433602 -75.0
    vertex 75.00000000000001 129.9038105676658 -75.0
  endloop
endfacet
facet normal 0.0 0.0 -1.0
  outer loop
    vertex 74.9999999999999 -129.90381056766583 -75.0
    vertex 75.00000000000001 129.9038105676658 -75.0
    vertex 106.0660171779821 -106.06601717798215 -75.0
  endloop
endfacet
facet normal 0.0 0.0 -1.0
  outer loop
    vertex 106.0660171779821 -106.06601717798215 -75.0
    vertex 75.00000000000001 129.9038105676658 -75.0
    vertex 106.06601717798212 106.06601717798212 -75.0
  endloop
endfacet
facet normal 0.0 0.0 -1.0
  outer loop
    vertex 106.0660171779821 -106.06601717798215 -75.0
    vertex 106.06601717798212 106.06601717798212 -75.0
    vertex 129.90381056766574 -75.00000000000007 -75.0
  endloop
endfacet
facet normal 0.0 0.0 -1.0
  outer loop
    vertex 129.90381056766574 -75.00000000000007 -75.0
    vertex 106.06601717798212 106.06601717798212 -75.0
    vertex 129.9038105676658 74.99999999999999 -75.0
  endloop
endfacet
facet normal 0.0 0.0 -1.0
  outer loop
    vertex 129.90381056766574 -75.00000000000007 -75.0
    vertex 129.9038105676658 74.99999999999999 -75.0
    vertex 144.8888739433602 -38.82285676537823 -75.0
  endloop
endfacet
facet normal 0.0 0.0 -1.0
  outer loop
    vertex 144.8888739433602 -38.82285676537823 -75.0
    vertex 129.9038105676658 74.99999999999999 -75.0
    vertex 144.88887394336024 38.82285676537811 -75.0
  endloop
endfacet
facet normal 0.0 0.0 -1.0
  outer loop
    vertex 144.8888739433602 -38.82285676537823 -75.0
    vertex 144.88887394336024 38.82285676537811 -75.0
    vertex 150.0 0.0 -75.0
  endloop
endfacet
facet normal -0.0 -0.0 1.0
  outer loop
    vertex -144.88887394336027 -38.822856765378056 75.0
    vertex -144.8888739433602 38.82285676537815 75.0
    vertex -150.0 1.8369701987210297e-14 75.0
  endloop
endfacet
facet normal -0.0 -0.0 1.0
  outer loop
    vertex -144.8888739433602 38.82285676537815 75.0
    vertex -144.88887394336027 -38.822856765378056 75.0
    vertex -129.90381056766583 -74.99999999999996 75.0
  endloop
endfacet
facet normal -0.0 -0.0 1.0
  outer loop
    vertex -144.8888739433602 38.82285676537815 75.0
    vertex -129.90381056766583 -74.99999999999996 75.0
    vertex -129.90381056766577 75.00000000000004 75.0
  endloop
endfacet
facet normal -0.0 -0.0 1.0
  outer loop
    vertex -129.90381056766577 75.00000000000004 75.0
    vertex -129.90381056766583 -74.99999999999996 75.0
    vertex -106.06601717798219 -106.06601717798208 75.0
  endloop
endfacet
facet normal -0.0 -0.0 1.0
  outer loop
    vertex -129.90381056766577 75.00000000000004 75.0
    vertex -106.06601717798219 -106.06601717798208 75.0
    vertex -106.06601717798212 106.06601717798212 75.0
  endloop
endfacet
facet normal -0.0 -0.0 1.0
  outer loop
    vertex -106.06601717798212 106.06601717798212 75.0
    vertex -106.06601717798219 -106.06601717798208 75.0
    vertex -75.00000000000007 -129.90381056766577 75.0
  endloop
endfacet
facet normal -0.0 -0.0 1.0
  outer loop
    vertex -106.06601717798212 106.06601717798212 75.0
    vertex -75.00000000000007 -129.90381056766577 75.0
    vertex -74.99999999999996 129.9038105676658 75.0
  endloop
endfacet
facet normal -0.0 -0.0 1.0
  outer loop
    vertex -74.99999999999996 129.9038105676658 75.0
    vertex -75.00000000000007 -129.90381056766577 75.0
    vertex -38.822856765378226 -144.8888739433602 75.0
  endloop
endfacet
facet normal -0.0 -0.0 1.0
  outer loop
    vertex -74.99999999999996 129.9038105676658 75.0
    vertex -38.822856765378226 -144.8888739433602 75.0
    vertex -38.82285676537809 144.88887394336024 75.0
  endloop
endfacet
facet normal -0.0 -0.0 1.0
  outer loop
    vertex -38.82285676537809 144.88887394336024 75.0
    vertex -38.822856765378226 -144.8888739433602 75.0
    vertex -2.7554552980815443e-14 -150.0 75.0
  endloop
endfacet
facet normal -0.0 -0.0 1.0
  outer loop
    vertex -38.82285676537809 144.88887394336024 75.0
    vertex -2.7554552980815443e-14 -150.0 75.0
    vertex 9.184850993605149e-15 150.0 75.0
  endloop
endfacet
facet normal -0.0 -0.0 1.0
  outer loop
    vertex 9.184850993605149e-15 150.0 75.0
    vertex -2.7554552980815443e-14 -150.0 75.0
    vertex 38.82285676537804 -144.88887394336027 75.0
  endloop
endfacet
facet normal -0.0 -0.0 1.0
  outer loop
    vertex 9.184850993605149e-15 150.0 75.0
    vertex 38.82285676537804 -144.88887394336027 75.0
    vertex 38.82285676537814 144.8888739433602 75.0
  endloop
endfacet
facet normal -0.0 -0.0 1.0
  outer loop
    vertex 38.82285676537814 144.8888739433602 75.0
    vertex 38.82285676537804 -144.88887394336027 75.0
    vertex 74.9999999999999 -129.90381056766583 75.0
  endloop
endfacet
facet normal -0.0 -0.0 1.0
  outer loop
    vertex 38.82285676537814 144.8888739433602 75.0
    vertex 74.9999999999999 -129.90381056766583 75.0
    vertex 75.00000000000001 129.9038105676658 75.0
  endloop
endfacet
facet normal -0.0 -0.0 1.0
  outer loop
    vertex 75.00000000000001 129.9038105676658 75.0
    vertex 74.9999999999999 -129.90381056766583 75.0
    vertex 106.0660171779821 -106.06601717798215 75.0
  endloop
endfacet
facet normal -0.0 -0.0 1.0
  outer loop
    vertex 75.00000000000001 129.9038105676658 75.0
    vertex 106.0660171779821 -106.06601717798215 75.0
    vertex 106.06601717798212 106.06601717798212 75.0
  endloop
endfacet
facet normal -0.0 -0.0 1.0
  outer loop
    vertex 106.06601717798212 106.06601717798212 75.0
    vertex 106.0660171779821 -106.06601717798215 75.0
    vertex 129.90381056766574 -75.00000000000007 75.0
  endloop
endfacet
facet normal -0.0 -0.0 1.0
  outer loop
    vertex 106.06601717798212 106.06601717798212 75.0
    vertex 129.90381056766574 -75.00000000000007 75.0
    vertex 129.9038105676658 74.99999999999999 75.0
  endloop
endfacet
facet normal -0.0 -0.0 1.0
  outer loop
    vertex 129.9038105676658 74.99999999999999 75.0
    vertex 129.90381056766574 -75.00000000000007 75.0
    vertex 144.8888739433602 -38.82285676537823 75.0
  endloop
endfacet
facet normal -0.0 -0.0 1.0
  outer loop
    vertex 129.9038105676658 74.99999999999999 75.0
    vertex 144.8888739433602 -38.82285676537823 75.0
    vertex 144.88887394336024 38.82285676537811 75.0
  endloop
endfacet
facet normal -0.0 -0.0 1.0
  outer loop
    vertex 144.88887394336024 38.82285676537811 75.0
    vertex 144.8888739433602 -38.82285676537823 75.0
    vertex 150.0 0.0 75.0
  endloop
endfacet
facet normal -0.9238795325112868 0.3826834323650898 0.0
  outer loop
    vertex -129.90381056766577 75.00000000000004 75.0
    vertex -144.8888739433602 38.82285676537815 -75.0
    vertex -144.8888739433602 38.82285676537815 75.0
  endloop
endfacet
facet normal -0.9238795325112868 0.3826834323650898 0.0
  outer loop
    vertex -144.8888739433602 38.82285676537815 -75.0
    vertex -129.90381056766577 75.00000000000004 75.0
    vertex -129.90381056766577 75.00000000000004 -75.0
  endloop
endfacet
facet normal -0.7933533402912349 0.608761429008721 0.0
  outer loop
    vertex -106.06601717798212 106.06601717798212 75.0
    vertex -129.90381056766577 75.00000000000004 -75.0
    vertex -129.90381056766577 75.00000000000004 75.0
  endloop
endfacet
facet normal -0.7933533402912349 0.608761429008721 0.0
  outer loop
    vertex -129.90381056766577 75.00000000000004 -75.0
    vertex -106.06601717798212 106.06601717798212 75.0
    vertex -106.06601717798212 106.06601717798212 -75.0
  endloop
endfacet
facet normal -0.6087614290087204 0.7933533402912355 0.0
  outer loop
    vertex -106.06601717798212 106.06601717798212 75.0
    vertex -74.99999999999996 129.9038105676658 -75.0
    vertex -106.06601717798212 106.06601717798212 -75.0
  endloop
endfacet
facet normal -0.6087614290087204 0.7933533402912355 0.0
  outer loop
    vertex -74.99999999999996 129.9038105676658 -75.0
    vertex -106.06601717798212 106.06601717798212 75.0
    vertex -74.99999999999996 129.9038105676658 75.0
  endloop
endfacet
facet normal -0.38268343236508995 0.9238795325112867 0.0
  outer loop
    vertex -74.99999999999996 129.9038105676658 75.0
    vertex -38.82285676537809 144.88887394336024 -75.0
    vertex -74.99999999999996 129.9038105676658 -75.0
  endloop
endfacet
facet normal -0.38268343236508995 0.9238795325112867 0.0
  outer loop
    vertex -38.82285676537809 144.88887394336024 -75.0
    vertex -74.99999999999996 129.9038105676658 75.0
    vertex -38.82285676537809 144.88887394336024 75.0
  endloop
endfacet
facet normal -0.13052619222005152 0.9914448613738106 0.0
  outer loop
    vertex -38.82285676537809 144.88887394336024 75.0
    vertex 9.184850993605149e-15 150.0 -75.0
    vertex -38.82285676537809 144.88887394336024 -75.0
  endloop
endfacet
facet normal -0.13052619222005152 0.9914448613738106 0.0
  outer loop
    vertex 9.184850993605149e-15 150.0 -75.0
    vertex -38.82285676537809 144.88887394336024 75.0
    vertex 9.184850993605149e-15 150.0 75.0
  endloop
endfacet
facet normal 0.130526192220052 0.9914448613738105 0.0
  outer loop
    vertex 9.184850993605149e-15 150.0 75.0
    vertex 38.82285676537814 144.8888739433602 -75.0
    vertex 9.184850993605149e-15 150.0 -75.0
  endloop
endfacet
facet normal 0.130526192220052 0.9914448613738105 0.0
  outer loop
    vertex 38.82285676537814 144.8888739433602 -75.0
    vertex 9.184850993605149e-15 150.0 75.0
    vertex 38.82285676537814 144.8888739433602 75.0
  endloop
endfacet
facet normal 0.3826834323650895 0.923879532511287 0.0
  outer loop
    vertex 38.82285676537814 144.8888739433602 75.0
    vertex 75.00000000000001 129.9038105676658 -75.0
    vertex 38.82285676537814 144.8888739433602 -75.0
  endloop
endfacet
facet normal 0.3826834323650895 0.923879532511287 0.0
  outer loop
    vertex 75.00000000000001 129.9038105676658 -75.0
    vertex 38.82285676537814 144.8888739433602 75.0
    vertex 75.00000000000001 129.9038105676658 75.0
  endloop
endfacet
facet normal 0.6087614290087209 0.7933533402912349 0.0
  outer loop
    vertex 75.00000000000001 129.9038105676658 75.0
    vertex 106.06601717798212 106.06601717798212 -75.0
    vertex 75.00000000000001 129.9038105676658 -75.0
  endloop
endfacet
facet normal 0.6087614290087209 0.7933533402912349 0.0
  outer loop
    vertex 106.06601717798212 106.06601717798212 -75.0
    vertex 75.00000000000001 129.9038105676658 75.0
    vertex 106.06601717798212 106.06601717798212 75.0
  endloop
endfacet
facet normal 0.793353340291235 0.6087614290087207 0.0
  outer loop
    vertex 106.06601717798212 106.06601717798212 -75.0
    vertex 129.9038105676658 74.99999999999999 75.0
    vertex 129.9038105676658 74.99999999999999 -75.0
  endloop
endfacet
facet normal 0.793353340291235 0.6087614290087207 0.0
  outer loop
    vertex 129.9038105676658 74.99999999999999 75.0
    vertex 106.06601717798212 106.06601717798212 -75.0
    vertex 106.06601717798212 106.06601717798212 75.0
  endloop
endfacet
facet normal 0.9238795325112867 0.3826834323650899 0.0
  outer loop
    vertex 129.9038105676658 74.99999999999999 -75.0
    vertex 144.88887394336024 38.82285676537811 75.0
    vertex 144.88887394336024 38.82285676537811 -75.0
  endloop
endfacet
facet normal 0.9238795325112867 0.3826834323650899 0.0
  outer loop
    vertex 144.88887394336024 38.82285676537811 75.0
    vertex 129.9038105676658 74.99999999999999 -75.0
    vertex 129.9038105676658 74.99999999999999 75.0
  endloop
endfacet
facet normal 0.9914448613738106 0.1305261922200515 0.0
  outer loop
    vertex 144.88887394336024 38.82285676537811 -75.0
    vertex 150.0 0.0 75.0
    vertex 150.0 0.0 -75.0
  endloop
endfacet
facet normal 0.9914448613738106 0.1305261922200515 0.0
  outer loop
    vertex 150.0 0.0 75.0
    vertex 144.88887394336024 38.82285676537811 -75.0
    vertex 144.88887394336024 38.82285676537811 75.0
  endloop
endfacet
facet normal 0.9914448613738103 -0.13052619222005218 0.0
  outer loop
    vertex 150.0 0.0 -75.0
    vertex 144.8888739433602 -38.82285676537823 75.0
    vertex 144.8888739433602 -38.82285676537823 -75.0
  endloop
endfacet
facet normal 0.9914448613738103 -0.13052619222005218 0.0
  outer loop
    vertex 144.8888739433602 -38.82285676537823 75.0
    vertex 150.0 0.0 -75.0
    vertex 150.0 0.0 75.0
  endloop
endfacet
facet normal 0.9238795325112867 -0.3826834323650904 0.0
  outer loop
    vertex 144.8888739433602 -38.82285676537823 -75.0
    vertex 129.90381056766574 -75.00000000000007 75.0
    vertex 129.90381056766574 -75.00000000000007 -75.0
  endloop
endfacet
facet normal 0.9238795325112867 -0.3826834323650904 0.0
  outer loop
    vertex 129.90381056766574 -75.00000000000007 75.0
    vertex 144.8888739433602 -38.82285676537823 -75.0
    vertex 144.8888739433602 -38.82285676537823 75.0
  endloop
endfacet
facet normal 0.7933533402912349 -0.608761429008721 0.0
  outer loop
    vertex 129.90381056766574 -75.00000000000007 -75.0
    vertex 106.0660171779821 -106.06601717798215 75.0
    vertex 106.0660171779821 -106.06601717798215 -75.0
  endloop
endfacet
facet normal 0.7933533402912349 -0.608761429008721 0.0
  outer loop
    vertex 106.0660171779821 -106.06601717798215 75.0
    vertex 129.90381056766574 -75.00000000000007 -75.0
    vertex 129.90381056766574 -75.00000000000007 75.0
  endloop
endfacet
facet normal 0.6087614290087202 -0.7933533402912357 0.0
  outer loop
    vertex 106.0660171779821 -106.06601717798215 75.0
    vertex 74.9999999999999 -129.90381056766583 -75.0
    vertex 106.0660171779821 -106.06601717798215 -75.0
  endloop
endfacet
facet normal 0.6087614290087202 -0.7933533402912357 0.0
  outer loop
    vertex 74.9999999999999 -129.90381056766583 -75.0
    vertex 106.0660171779821 -106.06601717798215 75.0
    vertex 74.9999999999999 -129.90381056766583 75.0
  endloop
endfacet
facet normal 0.3826834323650897 -0.923879532511287 0.0
  outer loop
    vertex 74.9999999999999 -129.90381056766583 75.0
    vertex 38.82285676537804 -144.88887394336027 -75.0
    vertex 74.9999999999999 -129.90381056766583 -75.0
  endloop
endfacet
facet normal 0.3826834323650897 -0.923879532511287 0.0
  outer loop
    vertex 38.82285676537804 -144.88887394336027 -75.0
    vertex 74.9999999999999 -129.90381056766583 75.0
    vertex 38.82285676537804 -144.88887394336027 75.0
  endloop
endfacet
facet normal 0.13052619222005105 -0.9914448613738106 0.0
  outer loop
    vertex 38.82285676537804 -144.88887394336027 75.0
    vertex -2.7554552980815443e-14 -150.0 -75.0
    vertex 38.82285676537804 -144.88887394336027 -75.0
  endloop
endfacet
facet normal 0.13052619222005105 -0.9914448613738106 0.0
  outer loop
    vertex -2.7554552980815443e-14 -150.0 -75.0
    vertex 38.82285676537804 -144.88887394336027 75.0
    vertex -2.7554552980815443e-14 -150.0 75.0
  endloop
endfacet
facet normal -0.13052619222005232 -0.9914448613738105 -0.0
  outer loop
    vertex -2.7554552980815443e-14 -150.0 75.0
    vertex -38.822856765378226 -144.8888739433602 -75.0
    vertex -2.7554552980815443e-14 -150.0 -75.0
  endloop
endfacet
facet normal -0.13052619222005232 -0.9914448613738105 -0.0
  outer loop
    vertex -38.822856765378226 -144.8888739433602 -75.0
    vertex -2.7554552980815443e-14 -150.0 75.0
    vertex -38.822856765378226 -144.8888739433602 75.0
  endloop
endfacet
facet normal -0.3826834323650898 -0.9238795325112868 -0.0
  outer loop
    vertex -38.822856765378226 -144.8888739433602 75.0
    vertex -75.00000000000007 -129.90381056766577 -75.0
    vertex -38.822856765378226 -144.8888739433602 -75.0
  endloop
endfacet
facet normal -0.3826834323650898 -0.9238795325112868 -0.0
  outer loop
    vertex -75.00000000000007 -129.90381056766577 -75.0
    vertex -38.822856765378226 -144.8888739433602 75.0
    vertex -75.00000000000007 -129.90381056766577 75.0
  endloop
endfacet
facet normal -0.6087614290087212 -0.7933533402912348 -0.0
  outer loop
    vertex -75.00000000000007 -129.90381056766577 75.0
    vertex -106.06601717798219 -106.06601717798208 -75.0
    vertex -75.00000000000007 -129.90381056766577 -75.0
  endloop
endfacet
facet normal -0.6087614290087212 -0.7933533402912348 -0.0
  outer loop
    vertex -106.06601717798219 -106.06601717798208 -75.0
    vertex -75.00000000000007 -129.90381056766577 75.0
    vertex -106.06601717798219 -106.06601717798208 75.0
  endloop
endfacet
facet normal -0.7933533402912356 -0.6087614290087201 -0.0
  outer loop
    vertex -129.90381056766583 -74.99999999999996 75.0
    vertex -106.06601717798219 -106.06601717798208 -75.0
    vertex -106.06601717798219 -106.06601717798208 75.0
  endloop
endfacet
facet normal -0.7933533402912356 -0.6087614290087201 -0.0
  outer loop
    vertex -106.06601717798219 -106.06601717798208 -75.0
    vertex -129.90381056766583 -74.99999999999996 75.0
    vertex -129.90381056766583 -74.99999999999996 -75.0
  endloop
endfacet
facet normal -0.9238795325112868 -0.3826834323650897 -0.0
  outer loop
    vertex -144.88887394336027 -38.822856765378056 75.0
    vertex -129.90381056766583 -74.99999999999996 -75.0
    vertex -129.90381056766583 -74.99999999999996 75.0
  endloop
endfacet
facet normal -0.9238795325112868 -0.3826834323650897 -0.0
  outer loop
    vertex -129.90381056766583 -74.99999999999996 -75.0
    vertex -144.88887394336027 -38.822856765378056 75.0
    vertex -144.88887394336027 -38.822856765378056 -75.0
  endloop
endfacet
facet normal -0.9914448613738106 -0.13052619222005105 -0.0
  outer loop
    vertex -150.0 1.8369701987210297e-14 75.0
    vertex -144.88887394336027 -38.822856765378056 -75.0
    vertex -144.88887394336027 -38.822856765378056 75.0
  endloop
endfacet
facet normal -0.9914448613738106 -0.13052619222005105 -0.0
  outer loop
    vertex -144.88887394336027 -38.822856765378056 -75.0
    vertex -150.0 1.8369701987210297e-14 75.0
    vertex -150.0 1.8369701987210297e-14 -75.0
  endloop
endfacet
facet normal -0.9914448613738105 0.130526192220052 0.0
  outer loop
    vertex -144.8888739433602 38.82285676537815 75.0
    vertex -150.0 1.8369701987210297e-14 -75.0
    vertex -150.0 1.8369701987210297e-14 75.0
  endloop
endfacet
facet normal -0.9914448613738105 0.130526192220052 0.0
  outer loop
    vertex -150.0 1.8369701987210297e-14 -75.0
    vertex -144.8888739433602 38.82285676537815 75.0
    vertex -144.8888739433602 38.82285676537815 -75.0
  endloop
endfacet
endsolid Untitled-5f771acf
